<svg id="Layer_1" data-name="Layer 1" xmlns="http://www.w3.org/2000/svg" viewBox="0 0 338.31 129.79"><defs><style>.cls-1{fill:#0087c9;}.cls-1,.cls-2{fill-rule:evenodd;}.cls-2{fill:#f4c316;}</style></defs><path class="cls-1" d="M216.54,38.23h-6.47v-8l-7.38,2.23v5.78h-5v7.09h5v11.9c0,7.84,3.72,10.75,13.85,9.61V60.14c-4.24.23-6.47.17-6.47-2.92V45.32h6.47Zm-30.15,0H179v28.6h7.38V53.16c0-2.75.86-4.69,2.63-5.89a8.59,8.59,0,0,1,6.07-1.38V37.66c-3.89,0-7.33,1.83-8.7,5.49ZM151.32,58.36a8.09,8.09,0,0,1-2.23-5.83,7.88,7.88,0,0,1,2.23-5.78,8.15,8.15,0,0,1,11.33,0,7.65,7.65,0,0,1,2.29,5.78,7.86,7.86,0,0,1-2.29,5.83,8.31,8.31,0,0,1-11.33,0ZM164.94,41.6a11.2,11.2,0,0,0-9.32-4.17,13,13,0,0,0-9.84,4.4,15.21,15.21,0,0,0-4.07,10.7,15.32,15.32,0,0,0,4.07,10.75,13,13,0,0,0,9.84,4.35,11.18,11.18,0,0,0,9.32-4.18v3.38h7.38V38.23h-7.38ZM126.1,37.43c-3.78,0-6.64,1.37-8.53,4.12a8.46,8.46,0,0,0-7.77-4.12c-3.61,0-6.24,1.26-8,3.83v-3H94.46v28.6h7.38V50.75c0-4.17,2.12-6.46,5.38-6.46,3,0,4.81,2,4.81,5.44v17.1h7.38V50.75c0-4.17,1.94-6.46,5.32-6.46,3,0,4.8,2,4.8,5.44v17.1h7.38V49.21C136.91,42.06,132.68,37.43,126.1,37.43Z" transform="translate(0 -2)"/><path class="cls-2" d="M327.5,37.43c-3.77,0-6.63,1.37-8.52,4.12a8.47,8.47,0,0,0-7.78-4.12c-3.6,0-6.24,1.26-7.95,3.83v-3h-7.38v28.6h7.38V50.75c0-4.17,2.11-6.46,5.38-6.46,3,0,4.8,2,4.8,5.44v17.1h7.38V50.75c0-4.17,1.94-6.46,5.32-6.46,3,0,4.8,2,4.8,5.44v17.1h7.38V49.21C338.31,42.06,334.08,37.43,327.5,37.43ZM270,58.19a8.45,8.45,0,0,1,0-11.33,8,8,0,0,1,11.09,0,8.31,8.31,0,0,1,0,11.33,8,8,0,0,1-11.09,0Zm16.3,5.09a14.64,14.64,0,0,0,4.4-10.75,15.13,15.13,0,1,0-30.26,0,15.21,15.21,0,0,0,25.86,10.75ZM239.7,67.63a19.8,19.8,0,0,0,17.21-9.44l-6.8-3.95c-1.89,3.49-5.84,5.67-10.41,5.67a12.58,12.58,0,0,1-9.44-3.66,13.13,13.13,0,0,1-3.55-9.44,13.18,13.18,0,0,1,3.55-9.5,12.58,12.58,0,0,1,9.44-3.66,11.53,11.53,0,0,1,10.41,5.72l6.8-3.95A20.91,20.91,0,0,0,224.77,32a20.15,20.15,0,0,0-5.9,14.82A20.35,20.35,0,0,0,239.7,67.63Z" transform="translate(0 -2)"/><path class="cls-1" d="M26.33,70.62c-8.68-4.21-18.59-12.48-19-26.89A34.44,34.44,0,0,1,39.78,9.35V2.05A41.73,41.73,0,0,0,0,43.73C.49,64.48,14.39,74.06,33,79.44,37.9,80.89,45,82,50.58,84.27c16.26,6.53,5,24.79-11.48,21.5-6.09-1.21-11.62-5-12.36-13.11L12.25,84.29A30.33,30.33,0,0,0,14.09,102a29,29,0,0,0,13.79,14.61c15.29,7.29,30.42,2.39,38.94-9,8.08-10.79,3.61-24.83-11.22-29-9.72-2.74-20.07-3.47-29.27-7.93m40.94,43.51c-12.62,12.77-30.2,13.77-42.89,6.44A35.25,35.25,0,0,1,7.7,81.66l-5.9-3.4a41.68,41.68,0,0,0,26.12,51.1,41.4,41.4,0,0,0,46.64-13.54c9.11-11.68,11.54-26.94,3.87-37-7-9.17-19.09-13.65-31.33-16.44-13.45-2.69-21.48-8.31-22-18.63A16.6,16.6,0,0,1,39.78,27.25v-14a30.57,30.57,0,0,0-28.61,30.5c0,11.36,7.15,19.22,17,24.14,9,4.5,18.42,4.69,28,7.27C77.18,80.83,79.66,101.6,67.27,114.13Z" transform="translate(0 -2)"/><path class="cls-2" d="M41.73,13.17A30.57,30.57,0,0,1,68.21,59l-5.11-3a24.67,24.67,0,0,0-21.37-37Zm0,9.93A20.64,20.64,0,0,1,59.61,54.05l-3.5-2a16.61,16.61,0,0,0-14.38-24.9Zm0,20.63V30.12a13.62,13.62,0,0,1,11.8,20.42L50.7,48.91l-9-5.18ZM41.73,2A41.73,41.73,0,0,1,77.88,64.6L71.56,61A34.44,34.44,0,0,0,41.73,9.29Z" transform="translate(0 -2)"/><path class="cls-1" d="M292.48,78.45c-.23-.16-.44-.32-.62-.47a3.17,3.17,0,0,0-.58-.37,2.89,2.89,0,0,0-.7-.25,4.69,4.69,0,0,0-1-.09,4.86,4.86,0,0,0-3.11,1.11,4,4,0,0,0-1,1.2,3.11,3.11,0,0,0-.35,1.43,3.85,3.85,0,0,0,.23,1.43,2.33,2.33,0,0,0,.75,1,6.1,6.1,0,0,0,1.41.8c.58.24,1.3.51,2.15.81l1.27.46c.39.15.76.29,1.11.44s.68.31,1,.48a7,7,0,0,1,.87.59,4.5,4.5,0,0,1,1.53,2,7.56,7.56,0,0,1,.45,2.65,5.87,5.87,0,0,1-.58,2.62,6,6,0,0,1-1.55,2,6.91,6.91,0,0,1-2.28,1.25,8.79,8.79,0,0,1-2.78.43,7.18,7.18,0,0,1-4.87-1.71,8.31,8.31,0,0,1-.92-1,7.93,7.93,0,0,1-.61-.88l.23-.14a2,2,0,0,1,1-.3,2.44,2.44,0,0,1,.71.1,1.55,1.55,0,0,1,.6.36,7.65,7.65,0,0,0,1.15.9,4.73,4.73,0,0,0,1,.46,3.53,3.53,0,0,0,.88.18l.87,0a6.22,6.22,0,0,0,1.86-.21,4.92,4.92,0,0,0,1.69-.77,4.28,4.28,0,0,0,1.22-1.35,4,4,0,0,0,.47-2,4.78,4.78,0,0,0-.37-2,3.34,3.34,0,0,0-1-1.25,6,6,0,0,0-1.56-.8c-.6-.21-1.24-.45-1.93-.72l-2.4-1a8,8,0,0,1-1.85-1.06,4.27,4.27,0,0,1-1.19-1.51,5.54,5.54,0,0,1-.43-2.33,4.76,4.76,0,0,1,.58-2.35,6,6,0,0,1,1.48-1.8,6.68,6.68,0,0,1,2.05-1.16,6.45,6.45,0,0,1,2.27-.41,5.85,5.85,0,0,1,1.78.25,7.1,7.1,0,0,1,1.45.65,7.74,7.74,0,0,1,1.19.9c.35.33.68.66,1,1l-.48.34a1.4,1.4,0,0,1-.42.22,1.7,1.7,0,0,1-.59.09,1.79,1.79,0,0,1-1-.27M274.24,97.72h-1.91L259,78.55a.66.66,0,0,1-.12-.22l-.09-.24a1.9,1.9,0,0,1-.1-.28V97.72h-1.94V75.53h1.34a2.5,2.5,0,0,1,1,.16,1.51,1.51,0,0,1,.61.49l12.25,17.56a2.31,2.31,0,0,1,.18.35c.06.12.1.23.14.33s.07.23.1.36V75.53h1.91ZM227.49,86.63a9,9,0,0,0,.34,2.49,9.53,9.53,0,0,0,2.42,4.15,9.7,9.7,0,0,0,1.9,1.46,9.52,9.52,0,0,0,2.24,1,9.6,9.6,0,0,0,5,0,9.64,9.64,0,0,0,4.15-2.42A9.52,9.52,0,0,0,245,91.36a9.1,9.1,0,0,0,.95-2.24,9.35,9.35,0,0,0,.33-2.49,9.17,9.17,0,0,0-.74-3.66,9.63,9.63,0,0,0-2-3,9.44,9.44,0,0,0-3-2,9.48,9.48,0,0,0-6.15-.41,9.1,9.1,0,0,0-2.24,1,9.7,9.7,0,0,0-1.9,1.46,9.17,9.17,0,0,0-1.47,1.91,9.26,9.26,0,0,0-.95,2.24A9,9,0,0,0,227.49,86.63Zm-2,0a11.08,11.08,0,0,1,.89-4.42,11.39,11.39,0,0,1,2.44-3.61,11.78,11.78,0,0,1,3.6-2.43,11.52,11.52,0,0,1,8.83,0,11.35,11.35,0,0,1,6,6,11.4,11.4,0,0,1,0,8.83,11.54,11.54,0,0,1-2.43,3.6,11.37,11.37,0,0,1-3.61,2.43,11.4,11.4,0,0,1-8.83,0,11.44,11.44,0,0,1-3.6-2.43,11.24,11.24,0,0,1-2.44-3.6A11.1,11.1,0,0,1,225.54,86.63Zm-9,11.09h-1.94V75.53h1.94ZM190,77.48v-2h16.53v2h-7.29V97.72h-2V77.48ZM167.34,89.19a6.64,6.64,0,0,0,.54,2.67A7.13,7.13,0,0,0,169.34,94a7.29,7.29,0,0,0,2.17,1.47,6.64,6.64,0,0,0,2.67.54,6.53,6.53,0,0,0,2.64-.54A7.17,7.17,0,0,0,179,94a7,7,0,0,0,1.47-2.18,6.64,6.64,0,0,0,.54-2.67V75.53h1.94V89.2a8.57,8.57,0,0,1-.68,3.43,8.85,8.85,0,0,1-1.88,2.79,8.73,8.73,0,0,1-9.62,1.88,8.68,8.68,0,0,1-2.8-1.88,8.85,8.85,0,0,1-1.88-2.79,8.58,8.58,0,0,1-.69-3.43V75.53h2Zm-21.45,8.53V75.53h2V95.77H158v2Zm-29.2-11.09a9.35,9.35,0,0,0,.34,2.49,9.52,9.52,0,0,0,1,2.24,8.53,8.53,0,0,0,1.47,1.91,9.7,9.7,0,0,0,1.9,1.46,9.52,9.52,0,0,0,2.24,1,9.6,9.6,0,0,0,5,0,10,10,0,0,0,2.25-1,9.7,9.7,0,0,0,1.9-1.46,9.47,9.47,0,0,0,1.46-1.91,8.76,8.76,0,0,0,1-2.24,9.35,9.35,0,0,0,.33-2.49,9.17,9.17,0,0,0-.74-3.66,9.63,9.63,0,0,0-2-3,9.44,9.44,0,0,0-3-2,9.48,9.48,0,0,0-6.15-.41,9.1,9.1,0,0,0-2.24,1,9.7,9.7,0,0,0-1.9,1.46A8.53,8.53,0,0,0,118,81.89a9.7,9.7,0,0,0-1,2.24A9.37,9.37,0,0,0,116.69,86.63Zm-1.94,0a11.08,11.08,0,0,1,.89-4.42,11.37,11.37,0,0,1,2.43-3.61,12,12,0,0,1,3.61-2.43,11.52,11.52,0,0,1,8.83,0,11.71,11.71,0,0,1,3.61,2.43,11.51,11.51,0,0,1,2.42,3.61,11.4,11.4,0,0,1,0,8.83,11.31,11.31,0,0,1-6,6,11.4,11.4,0,0,1-8.83,0,11.59,11.59,0,0,1-3.61-2.43,11.28,11.28,0,0,1-3.32-8Zm-10.1-8.18A7.12,7.12,0,0,1,104,78a3.25,3.25,0,0,0-.59-.37,2.61,2.61,0,0,0-.7-.25,4.65,4.65,0,0,0-1-.09,4.79,4.79,0,0,0-1.7.3,4.64,4.64,0,0,0-1.41.81,3.86,3.86,0,0,0-1,1.2A3,3,0,0,0,97.29,81a3.85,3.85,0,0,0,.23,1.43,2.36,2.36,0,0,0,.76,1,5.81,5.81,0,0,0,1.4.8c.59.24,1.3.51,2.16.81l1.26.46c.4.15.77.29,1.12.44a9.94,9.94,0,0,1,1,.48,7,7,0,0,1,.87.59,4.45,4.45,0,0,1,1.54,2,7.8,7.8,0,0,1,.44,2.65,5.74,5.74,0,0,1-.58,2.62,6,6,0,0,1-1.55,2,6.81,6.81,0,0,1-2.28,1.25,8.75,8.75,0,0,1-2.78.43A7.2,7.2,0,0,1,96,96.25a7.44,7.44,0,0,1-.91-1,9.86,9.86,0,0,1-.62-.88l.24-.14a1.91,1.91,0,0,1,1-.3,2.39,2.39,0,0,1,.71.1,1.42,1.42,0,0,1,.6.36,7.67,7.67,0,0,0,1.16.9,4.67,4.67,0,0,0,1,.46,3.72,3.72,0,0,0,.88.18l.87,0a6.32,6.32,0,0,0,1.87-.21,5,5,0,0,0,1.68-.77,4.16,4.16,0,0,0,1.22-1.35,3.86,3.86,0,0,0,.47-2,4.63,4.63,0,0,0-.37-2,3.24,3.24,0,0,0-1-1.25,6.11,6.11,0,0,0-1.55-.8c-.6-.21-1.25-.45-1.94-.72l-2.4-1A8,8,0,0,1,97,84.85a4.39,4.39,0,0,1-1.19-1.51A5.55,5.55,0,0,1,95.35,81a4.86,4.86,0,0,1,.57-2.35,6,6,0,0,1,1.49-1.8,6.63,6.63,0,0,1,2-1.16,6.54,6.54,0,0,1,2.28-.41,5.78,5.78,0,0,1,1.77.25,6.86,6.86,0,0,1,1.45.65,7.28,7.28,0,0,1,1.19.9c.36.33.68.66,1,1l-.48.34a1.4,1.4,0,0,1-.42.22,1.64,1.64,0,0,1-.58.09A1.79,1.79,0,0,1,104.65,78.45Z" transform="translate(0 -2)"/></svg>